<mxfile host="app.diagrams.net" modified="2024-03-29T22:56:35.336Z" agent="Mozilla/5.0 (X11; Ubuntu; Linux x86_64; rv:121.0) Gecko/20100101 Firefox/121.0" version="24.2.1" etag="deITW7jjhEUDBcPS8NFX" type="github">
  <diagram name="Page-1" id="FpVf_XvU2jIsrHcqcGmg">
    <mxGraphModel>
      <root>
        <mxCell id="0" />
        <mxCell id="1" parent="0" />
      </root>
    </mxGraphModel>
  </diagram>
</mxfile>
